<svg version="1.1" id="Layer_1" xmlns="http://www.w3.org/2000/svg" xmlns:xlink="http://www.w3.org/1999/xlink" x="0px" y="0px"
	 width="100%" viewBox="0 0 512 512" enable-background="new 0 0 512 512" xml:space="preserve">
<path fill="#3730A3" opacity="1.000000" stroke="none" 
	d="
M290.000000,513.000000 
	C193.356796,513.000000 97.213585,513.000000 1.035192,513.000000 
	C1.035192,342.398438 1.035192,171.796860 1.035192,1.097646 
	C171.559891,1.097646 342.119843,1.097646 512.839905,1.097646 
	C512.839905,171.666550 512.839905,342.333252 512.839905,513.000000 
	C438.796844,513.000000 364.648407,513.000000 290.000000,513.000000 
M332.851776,249.790329 
	C333.026703,249.980667 333.201630,250.171005 333.187439,251.021255 
	C329.941833,257.206543 326.426178,263.270142 323.561493,269.627075 
	C322.067596,272.942078 321.448486,276.970612 324.866577,279.789734 
	C328.207672,282.545319 331.818024,280.868408 334.559326,278.821899 
	C341.483185,273.652954 348.161346,268.137024 354.693665,262.478149 
	C355.863403,261.464783 355.863129,259.100739 356.403076,257.360352 
	C354.093262,257.740448 352.852661,258.753571 351.586884,259.734100 
	C349.220245,261.567474 347.032196,263.780975 344.393372,265.058899 
	C342.734558,265.862244 339.774658,266.034302 338.526794,265.053711 
	C337.274384,264.069519 336.720917,261.142212 337.131287,259.358734 
	C337.661041,257.056641 339.243256,254.883041 340.745087,252.942657 
	C343.597809,249.256989 346.845123,245.875641 349.677246,242.175552 
	C351.555786,239.721283 350.479126,232.620560 347.593842,231.485611 
	C345.936493,230.833633 342.754059,232.307358 341.071991,233.763962 
	C332.507874,241.180038 324.223328,248.918396 315.802643,256.501404 
	C314.585907,257.597107 313.162048,258.462769 311.834045,259.434875 
	C311.550262,259.133270 311.266479,258.831635 310.982697,258.530029 
	C311.907867,257.070862 312.862000,255.629120 313.753143,254.149445 
	C317.184570,248.451660 320.887207,242.886353 323.834808,236.947113 
	C324.704895,235.193817 324.210571,231.601227 322.899994,230.257477 
	C321.611450,228.936340 318.190002,228.567566 316.246490,229.273346 
	C313.213928,230.374603 310.326721,232.399155 307.927795,234.625122 
	C300.357849,241.649246 293.077698,248.984726 285.601807,256.112091 
	C284.089539,257.553864 282.211334,258.611816 280.501831,259.846710 
	C280.093262,259.451691 279.684692,259.056641 279.276093,258.661621 
	C279.695648,254.313461 282.469025,251.085190 285.288849,247.914185 
	C287.832214,245.054047 290.748596,242.476212 292.951630,239.382965 
	C294.114838,237.749680 294.106873,235.282288 294.627716,233.191498 
	C292.267395,232.809738 289.755188,231.753372 287.590515,232.240677 
	C285.528717,232.704819 283.398041,234.450012 282.053009,236.209457 
	C278.220947,241.222183 274.407593,246.318420 271.267883,251.773712 
	C267.337036,258.603607 267.945007,265.929871 270.987671,272.969269 
	C273.727905,279.308960 276.593048,279.421112 280.908417,274.106384 
	C287.515503,265.969177 294.305725,257.976746 301.182098,250.065323 
	C302.514130,248.532806 304.597107,247.653046 306.333710,246.472183 
	C306.737457,246.877243 307.141235,247.282288 307.544983,247.687347 
	C306.913727,249.276749 306.417236,250.936920 305.626587,252.442627 
	C302.994720,257.454498 300.192078,262.377319 297.598083,267.408081 
	C296.771545,269.011078 295.899689,270.854828 295.936401,272.569397 
	C295.978790,274.548706 296.439178,277.369476 297.758850,278.231354 
	C299.073730,279.090149 302.004608,278.536682 303.637512,277.587982 
	C305.867859,276.292175 307.570160,274.066071 309.447174,272.187195 
	C317.086609,264.539978 324.706421,256.873108 332.851776,249.790329 
M135.175568,175.888275 
	C120.698303,177.216827 106.988098,180.906113 94.893135,189.316559 
	C89.061142,193.371964 84.171768,198.342453 81.586212,205.143387 
	C77.714394,215.327606 82.238792,224.788483 92.849190,227.127670 
	C99.773483,228.654205 107.018677,228.735046 114.123688,229.426971 
	C116.802475,229.687836 119.491295,229.845840 122.175545,230.050735 
	C122.219536,230.509750 122.263535,230.968781 122.307533,231.427795 
	C120.512611,231.894302 118.667038,232.221100 116.931145,232.850433 
	C106.956406,236.466553 96.499336,239.199707 87.221466,244.139771 
	C80.584183,247.673843 74.340134,253.363693 70.026932,259.558258 
	C60.235325,273.620789 67.233391,288.976715 84.246391,290.653076 
	C104.436012,292.642456 123.321533,287.468384 140.022308,275.792206 
	C148.240860,270.046295 151.123001,261.426178 150.628357,251.448242 
	C149.910599,251.559799 149.523010,251.506287 149.302246,251.673309 
	C148.107788,252.576752 146.959030,253.540344 145.786545,254.473160 
	C135.798370,262.419464 125.175171,269.517487 112.592850,272.232513 
	C104.919884,273.888214 96.746300,274.545502 88.937546,273.915680 
	C79.180534,273.128784 77.044571,266.401642 83.719971,259.087280 
	C86.825287,255.684753 90.555183,252.723068 94.392250,250.141708 
	C106.054443,242.296036 118.997574,237.703644 132.939026,235.941391 
	C137.391830,235.378555 141.335312,234.031097 143.893555,229.930145 
	C147.245026,224.557678 146.134720,221.859772 139.837891,221.592239 
	C129.856186,221.168152 119.848793,221.337860 109.868904,220.887527 
	C104.911766,220.663834 99.903946,219.986160 95.082375,218.831726 
	C91.186913,217.899017 90.614868,215.167969 93.236931,212.071487 
	C94.512413,210.565277 96.073257,209.228302 97.706757,208.109390 
	C108.055542,201.020813 119.496826,196.617630 131.929153,195.135483 
	C136.547272,194.584915 141.286041,195.046478 145.969788,195.046478 
	C146.035919,195.526337 146.102051,196.006195 146.168167,196.486053 
	C143.505554,198.809113 140.842941,201.132172 138.180328,203.455231 
	C138.387604,203.806534 138.594879,204.157852 138.802155,204.509155 
	C146.007874,200.903427 153.256607,197.378250 160.361099,193.583054 
	C161.185928,193.142410 161.455124,191.224152 161.554138,189.957489 
	C161.735275,187.640121 161.501022,185.293228 161.611725,182.966797 
	C161.832962,178.317276 159.310257,176.140732 155.041092,175.988892 
	C148.729828,175.764420 142.406952,175.866013 135.175568,175.888275 
M428.760590,237.278656 
	C420.552185,244.746857 412.343781,252.215057 404.135376,259.683258 
	C403.718781,259.290558 403.302216,258.897858 402.885620,258.505157 
	C403.804169,257.048248 404.739838,255.601883 405.638214,254.132645 
	C408.933807,248.742920 412.628632,243.538559 415.294067,237.852325 
	C416.302155,235.701630 415.846558,231.585892 414.339264,229.939972 
	C413.134583,228.624466 409.031464,228.963562 406.746063,229.885361 
	C403.755585,231.091568 401.042084,233.332825 398.641998,235.588974 
	C391.485687,242.315994 384.576752,249.305435 377.484344,256.101715 
	C375.973541,257.549438 374.095367,258.613831 371.557434,260.456787 
	C371.208679,254.164505 374.437744,251.148071 377.145355,247.957977 
	C379.618683,245.043961 382.592194,242.518204 384.804108,239.433319 
	C385.980286,237.793045 386.008667,235.329773 386.555145,233.237991 
	C384.044678,232.888535 381.421051,231.936829 379.059540,232.380432 
	C377.174652,232.734482 375.220398,234.494522 373.974182,236.142609 
	C370.170197,241.173416 366.315155,246.234467 363.183807,251.687881 
	C359.167023,258.683289 359.800629,266.158966 363.029572,273.322357 
	C365.721680,279.294830 368.550385,279.333710 372.712616,274.200287 
	C379.205078,266.192871 385.849396,258.304626 392.598724,250.512558 
	C394.060364,248.825104 396.239532,247.759079 398.088196,246.406830 
	C398.528961,246.797134 398.969727,247.187454 399.410492,247.577759 
	C398.724243,249.293793 398.162170,251.072815 397.329468,252.714554 
	C394.320587,258.646515 390.853180,264.382660 388.355286,270.517029 
	C387.485626,272.652710 388.927277,275.729614 389.313324,278.376648 
	C391.893646,277.806946 394.682800,277.662811 396.987762,276.531921 
	C398.808289,275.638672 400.027222,273.526184 401.524353,271.965729 
	C407.860565,265.361664 414.171173,258.732483 420.570953,252.190567 
	C421.560364,251.179169 422.965759,250.574692 424.178802,249.782028 
	C424.581970,251.471359 424.273834,252.344299 423.850555,253.157257 
	C421.087097,258.464355 418.038330,263.642700 415.612061,269.098480 
	C414.052765,272.604736 413.139526,276.730042 416.692291,279.731079 
	C420.192291,282.687531 423.940338,280.751190 426.799164,278.621490 
	C433.591431,273.561584 440.120026,268.126831 446.494904,262.546265 
	C447.682861,261.506348 447.656311,259.079041 448.190277,257.292023 
	C443.677765,259.564484 440.525848,262.601654 436.844238,264.716797 
	C435.074982,265.733246 431.740265,265.852539 430.170227,264.801300 
	C428.946411,263.981873 428.791382,260.613342 429.197083,258.584747 
	C429.592224,256.608856 431.139557,254.765839 432.470337,253.094910 
	C435.269592,249.580231 438.362030,246.297928 441.136353,242.764954 
	C443.350922,239.944778 442.615387,233.793335 439.694366,231.437225 
	C436.341827,228.733124 434.846313,232.599930 432.692535,233.883087 
	C431.426422,234.637405 430.413971,235.817505 428.760590,237.278656 
M242.056900,226.474075 
	C230.732941,230.657043 222.708817,238.525391 217.010651,248.963684 
	C213.402603,255.573151 213.513046,262.401489 216.262466,269.207001 
	C220.896301,280.676849 230.664017,283.214752 240.103317,275.295044 
	C244.362869,271.721222 247.795517,267.412781 254.341125,267.453064 
	C256.828766,267.468384 259.599060,264.755280 261.735107,262.747955 
	C263.049316,261.512970 263.407410,259.260620 264.595367,256.551605 
	C259.985931,258.682953 256.786224,260.162476 252.556351,262.118317 
	C254.852386,254.544983 256.882507,248.795349 258.272369,242.894897 
	C259.055298,239.571075 259.359222,235.857178 255.409454,233.645691 
	C254.946304,233.386383 254.806488,231.998474 254.982544,231.242188 
	C255.833481,227.587097 253.645111,226.237579 250.728638,225.955276 
	C248.120560,225.702835 245.448547,226.111008 242.056900,226.474075 
M163.329376,253.938309 
	C163.954300,260.124603 163.440613,266.712250 165.449249,272.410828 
	C169.232941,283.145233 177.933289,285.970825 187.353256,279.650726 
	C194.619583,274.775543 201.031006,268.589966 207.582489,262.719116 
	C208.750046,261.672882 208.743683,259.316620 209.576050,256.595276 
	C202.824646,260.819489 197.590683,264.776947 191.776459,267.491516 
	C187.914612,269.294556 183.103424,270.375580 178.930069,269.902374 
	C172.139374,269.132446 168.973465,260.619446 173.608826,255.759216 
	C178.091995,251.058563 183.665588,247.397858 188.818451,243.233292 
	C189.959778,245.772415 190.652084,247.312561 191.344376,248.852707 
	C193.149948,247.848434 195.473419,247.253830 196.657043,245.757553 
	C199.417725,242.267639 202.200760,238.574341 203.842255,234.506439 
	C204.767349,232.213928 204.405792,228.100662 202.864883,226.481155 
	C201.327667,224.865494 197.057068,224.136063 194.911224,225.093765 
	C181.540192,231.061295 170.797333,240.222046 163.329376,253.938309 
z"/>
<path fill="#F8F8FB" opacity="1.000000" stroke="none" 
	d="
M135.632294,175.858521 
	C142.406952,175.866013 148.729828,175.764420 155.041092,175.988892 
	C159.310257,176.140732 161.832962,178.317276 161.611725,182.966797 
	C161.501022,185.293228 161.735275,187.640121 161.554138,189.957489 
	C161.455124,191.224152 161.185928,193.142410 160.361099,193.583054 
	C153.256607,197.378250 146.007874,200.903427 138.802155,204.509155 
	C138.594879,204.157852 138.387604,203.806534 138.180328,203.455231 
	C140.842941,201.132172 143.505554,198.809113 146.168167,196.486053 
	C146.102051,196.006195 146.035919,195.526337 145.969788,195.046478 
	C141.286041,195.046478 136.547272,194.584915 131.929153,195.135483 
	C119.496826,196.617630 108.055542,201.020813 97.706757,208.109390 
	C96.073257,209.228302 94.512413,210.565277 93.236931,212.071487 
	C90.614868,215.167969 91.186913,217.899017 95.082375,218.831726 
	C99.903946,219.986160 104.911766,220.663834 109.868904,220.887527 
	C119.848793,221.337860 129.856186,221.168152 139.837891,221.592239 
	C146.134720,221.859772 147.245026,224.557678 143.893555,229.930145 
	C141.335312,234.031097 137.391830,235.378555 132.939026,235.941391 
	C118.997574,237.703644 106.054443,242.296036 94.392250,250.141708 
	C90.555183,252.723068 86.825287,255.684753 83.719971,259.087280 
	C77.044571,266.401642 79.180534,273.128784 88.937546,273.915680 
	C96.746300,274.545502 104.919884,273.888214 112.592850,272.232513 
	C125.175171,269.517487 135.798370,262.419464 145.786545,254.473160 
	C146.959030,253.540344 148.107788,252.576752 149.302246,251.673309 
	C149.523010,251.506287 149.910599,251.559799 150.628357,251.448242 
	C151.123001,261.426178 148.240860,270.046295 140.022308,275.792206 
	C123.321533,287.468384 104.436012,292.642456 84.246391,290.653076 
	C67.233391,288.976715 60.235325,273.620789 70.026932,259.558258 
	C74.340134,253.363693 80.584183,247.673843 87.221466,244.139771 
	C96.499336,239.199707 106.956406,236.466553 116.931145,232.850433 
	C118.667038,232.221100 120.512611,231.894302 122.307533,231.427795 
	C122.263535,230.968781 122.219536,230.509750 122.175545,230.050735 
	C119.491295,229.845840 116.802475,229.687836 114.123688,229.426971 
	C107.018677,228.735046 99.773483,228.654205 92.849190,227.127670 
	C82.238792,224.788483 77.714394,215.327606 81.586212,205.143387 
	C84.171768,198.342453 89.061142,193.371964 94.893135,189.316559 
	C106.988098,180.906113 120.698303,177.216827 135.632294,175.858521 
z"/>
<path fill="#F6F6FA" opacity="1.000000" stroke="none" 
	d="
M429.023987,237.042374 
	C430.413971,235.817505 431.426422,234.637405 432.692535,233.883087 
	C434.846313,232.599930 436.341827,228.733124 439.694366,231.437225 
	C442.615387,233.793335 443.350922,239.944778 441.136353,242.764954 
	C438.362030,246.297928 435.269592,249.580231 432.470337,253.094910 
	C431.139557,254.765839 429.592224,256.608856 429.197083,258.584747 
	C428.791382,260.613342 428.946411,263.981873 430.170227,264.801300 
	C431.740265,265.852539 435.074982,265.733246 436.844238,264.716797 
	C440.525848,262.601654 443.677765,259.564484 448.190277,257.292023 
	C447.656311,259.079041 447.682861,261.506348 446.494904,262.546265 
	C440.120026,268.126831 433.591431,273.561584 426.799164,278.621490 
	C423.940338,280.751190 420.192291,282.687531 416.692291,279.731079 
	C413.139526,276.730042 414.052765,272.604736 415.612061,269.098480 
	C418.038330,263.642700 421.087097,258.464355 423.850555,253.157257 
	C424.273834,252.344299 424.581970,251.471359 424.178802,249.782028 
	C422.965759,250.574692 421.560364,251.179169 420.570953,252.190567 
	C414.171173,258.732483 407.860565,265.361664 401.524353,271.965729 
	C400.027222,273.526184 398.808289,275.638672 396.987762,276.531921 
	C394.682800,277.662811 391.893646,277.806946 389.313324,278.376648 
	C388.927277,275.729614 387.485626,272.652710 388.355286,270.517029 
	C390.853180,264.382660 394.320587,258.646515 397.329468,252.714554 
	C398.162170,251.072815 398.724243,249.293793 399.410492,247.577759 
	C398.969727,247.187454 398.528961,246.797134 398.088196,246.406830 
	C396.239532,247.759079 394.060364,248.825104 392.598724,250.512558 
	C385.849396,258.304626 379.205078,266.192871 372.712616,274.200287 
	C368.550385,279.333710 365.721680,279.294830 363.029572,273.322357 
	C359.800629,266.158966 359.167023,258.683289 363.183807,251.687881 
	C366.315155,246.234467 370.170197,241.173416 373.974182,236.142609 
	C375.220398,234.494522 377.174652,232.734482 379.059540,232.380432 
	C381.421051,231.936829 384.044678,232.888535 386.555145,233.237991 
	C386.008667,235.329773 385.980286,237.793045 384.804108,239.433319 
	C382.592194,242.518204 379.618683,245.043961 377.145355,247.957977 
	C374.437744,251.148071 371.208679,254.164505 371.557434,260.456787 
	C374.095367,258.613831 375.973541,257.549438 377.484344,256.101715 
	C384.576752,249.305435 391.485687,242.315994 398.641998,235.588974 
	C401.042084,233.332825 403.755585,231.091568 406.746063,229.885361 
	C409.031464,228.963562 413.134583,228.624466 414.339264,229.939972 
	C415.846558,231.585892 416.302155,235.701630 415.294067,237.852325 
	C412.628632,243.538559 408.933807,248.742920 405.638214,254.132645 
	C404.739838,255.601883 403.804169,257.048248 402.885620,258.505157 
	C403.302216,258.897858 403.718781,259.290558 404.135376,259.683258 
	C412.343781,252.215057 420.552185,244.746857 429.023987,237.042374 
M424.253082,249.992706 
	C424.758545,249.849533 425.269623,249.720566 425.756348,249.529633 
	C425.787140,249.517532 425.628723,249.023132 425.558350,248.753098 
	C425.152374,248.868530 424.746399,248.983948 424.253082,249.992706 
M400.859253,261.824310 
	C401.192902,261.518097 401.526581,261.211914 401.860229,260.905701 
	C401.415497,261.006744 400.970795,261.107788 400.859253,261.824310 
z"/>
<path fill="#F6F6FA" opacity="1.000000" stroke="none" 
	d="
M332.333435,249.213470 
	C324.706421,256.873108 317.086609,264.539978 309.447174,272.187195 
	C307.570160,274.066071 305.867859,276.292175 303.637512,277.587982 
	C302.004608,278.536682 299.073730,279.090149 297.758850,278.231354 
	C296.439178,277.369476 295.978790,274.548706 295.936401,272.569397 
	C295.899689,270.854828 296.771545,269.011078 297.598083,267.408081 
	C300.192078,262.377319 302.994720,257.454498 305.626587,252.442627 
	C306.417236,250.936920 306.913727,249.276749 307.544983,247.687347 
	C307.141235,247.282288 306.737457,246.877243 306.333710,246.472183 
	C304.597107,247.653046 302.514130,248.532806 301.182098,250.065323 
	C294.305725,257.976746 287.515503,265.969177 280.908417,274.106384 
	C276.593048,279.421112 273.727905,279.308960 270.987671,272.969269 
	C267.945007,265.929871 267.337036,258.603607 271.267883,251.773712 
	C274.407593,246.318420 278.220947,241.222183 282.053009,236.209457 
	C283.398041,234.450012 285.528717,232.704819 287.590515,232.240677 
	C289.755188,231.753372 292.267395,232.809738 294.627716,233.191498 
	C294.106873,235.282288 294.114838,237.749680 292.951630,239.382965 
	C290.748596,242.476212 287.832214,245.054047 285.288849,247.914185 
	C282.469025,251.085190 279.695648,254.313461 279.276093,258.661621 
	C279.684692,259.056641 280.093262,259.451691 280.501831,259.846710 
	C282.211334,258.611816 284.089539,257.553864 285.601807,256.112091 
	C293.077698,248.984726 300.357849,241.649246 307.927795,234.625122 
	C310.326721,232.399155 313.213928,230.374603 316.246490,229.273346 
	C318.190002,228.567566 321.611450,228.936340 322.899994,230.257477 
	C324.210571,231.601227 324.704895,235.193817 323.834808,236.947113 
	C320.887207,242.886353 317.184570,248.451660 313.753143,254.149445 
	C312.862000,255.629120 311.907867,257.070862 310.982697,258.530029 
	C311.266479,258.831635 311.550262,259.133270 311.834045,259.434875 
	C313.162048,258.462769 314.585907,257.597107 315.802643,256.501404 
	C324.223328,248.918396 332.507874,241.180038 341.071991,233.763962 
	C342.754059,232.307358 345.936493,230.833633 347.593842,231.485611 
	C350.479126,232.620560 351.555786,239.721283 349.677246,242.175552 
	C346.845123,245.875641 343.597809,249.256989 340.745087,252.942657 
	C339.243256,254.883041 337.661041,257.056641 337.131287,259.358734 
	C336.720917,261.142212 337.274384,264.069519 338.526794,265.053711 
	C339.774658,266.034302 342.734558,265.862244 344.393372,265.058899 
	C347.032196,263.780975 349.220245,261.567474 351.586884,259.734100 
	C352.852661,258.753571 354.093262,257.740448 356.403076,257.360352 
	C355.863129,259.100739 355.863403,261.464783 354.693665,262.478149 
	C348.161346,268.137024 341.483185,273.652954 334.559326,278.821899 
	C331.818024,280.868408 328.207672,282.545319 324.866577,279.789734 
	C321.448486,276.970612 322.067596,272.942078 323.561493,269.627075 
	C326.426178,263.270142 329.941833,257.206543 333.508362,250.490128 
	C333.795898,249.403885 333.762543,248.848785 333.729187,248.293671 
	C333.263916,248.600266 332.798676,248.906860 332.333435,249.213470 
M310.492371,260.943481 
	C310.623932,260.754456 310.755493,260.565399 310.887024,260.376343 
	C310.595978,260.404541 310.304962,260.432709 310.492371,260.943481 
z"/>
<path fill="#F7F7FB" opacity="1.000000" stroke="none" 
	d="
M242.430817,226.350891 
	C245.448547,226.111008 248.120560,225.702835 250.728638,225.955276 
	C253.645111,226.237579 255.833481,227.587097 254.982544,231.242188 
	C254.806488,231.998474 254.946304,233.386383 255.409454,233.645691 
	C259.359222,235.857178 259.055298,239.571075 258.272369,242.894897 
	C256.882507,248.795349 254.852386,254.544983 252.556351,262.118317 
	C256.786224,260.162476 259.985931,258.682953 264.595367,256.551605 
	C263.407410,259.260620 263.049316,261.512970 261.735107,262.747955 
	C259.599060,264.755280 256.828766,267.468384 254.341125,267.453064 
	C247.795517,267.412781 244.362869,271.721222 240.103317,275.295044 
	C230.664017,283.214752 220.896301,280.676849 216.262466,269.207001 
	C213.513046,262.401489 213.402603,255.573151 217.010651,248.963684 
	C222.708817,238.525391 230.732941,230.657043 242.430817,226.350891 
M245.110703,237.901093 
	C242.046738,239.903732 238.956345,241.867279 235.924301,243.917130 
	C229.591202,248.198685 225.202225,253.668121 224.250977,261.631744 
	C223.634109,266.795837 224.661224,268.981537 229.093552,269.547150 
	C233.292191,270.082947 241.721649,265.512177 241.042923,262.726196 
	C238.826111,253.626587 242.796616,246.117996 246.790344,238.059387 
	C246.758118,237.819046 246.725906,237.578705 246.693680,237.338379 
	C246.396271,237.490616 246.098862,237.642853 245.110703,237.901093 
z"/>
<path fill="#F7F7FB" opacity="1.000000" stroke="none" 
	d="
M163.471802,253.573547 
	C170.797333,240.222046 181.540192,231.061295 194.911224,225.093765 
	C197.057068,224.136063 201.327667,224.865494 202.864883,226.481155 
	C204.405792,228.100662 204.767349,232.213928 203.842255,234.506439 
	C202.200760,238.574341 199.417725,242.267639 196.657043,245.757553 
	C195.473419,247.253830 193.149948,247.848434 191.344376,248.852707 
	C190.652084,247.312561 189.959778,245.772415 188.818451,243.233292 
	C183.665588,247.397858 178.091995,251.058563 173.608826,255.759216 
	C168.973465,260.619446 172.139374,269.132446 178.930069,269.902374 
	C183.103424,270.375580 187.914612,269.294556 191.776459,267.491516 
	C197.590683,264.776947 202.824646,260.819489 209.576050,256.595276 
	C208.743683,259.316620 208.750046,261.672882 207.582489,262.719116 
	C201.031006,268.589966 194.619583,274.775543 187.353256,279.650726 
	C177.933289,285.970825 169.232941,283.145233 165.449249,272.410828 
	C163.440613,266.712250 163.954300,260.124603 163.471802,253.573547 
z"/>
<path fill="#3730A3" opacity="1.000000" stroke="none" 
	d="
M424.296753,249.546051 
	C424.746399,248.983948 425.152374,248.868530 425.558350,248.753098 
	C425.628723,249.023132 425.787140,249.517532 425.756348,249.529633 
	C425.269623,249.720566 424.758545,249.849533 424.296753,249.546051 
z"/>
<path fill="#3730A3" opacity="1.000000" stroke="none" 
	d="
M400.692657,261.516571 
	C400.970795,261.107788 401.415497,261.006744 401.860229,260.905701 
	C401.526581,261.211914 401.192902,261.518097 400.692657,261.516571 
z"/>
<path fill="#3730A3" opacity="1.000000" stroke="none" 
	d="
M332.592590,249.501892 
	C332.798676,248.906860 333.263916,248.600266 333.729187,248.293671 
	C333.762543,248.848785 333.795898,249.403885 333.602905,250.160172 
	C333.201630,250.171005 333.026703,249.980667 332.592590,249.501892 
z"/>
<path fill="#3730A3" opacity="1.000000" stroke="none" 
	d="
M310.253143,260.702209 
	C310.304962,260.432709 310.595978,260.404541 310.887024,260.376343 
	C310.755493,260.565399 310.623932,260.754456 310.253143,260.702209 
z"/>
<path fill="#3F39A7" opacity="1.000000" stroke="none" 
	d="
M246.450943,238.447403 
	C242.796616,246.117996 238.826111,253.626587 241.042923,262.726196 
	C241.721649,265.512177 233.292191,270.082947 229.093552,269.547150 
	C224.661224,268.981537 223.634109,266.795837 224.250977,261.631744 
	C225.202225,253.668121 229.591202,248.198685 235.924301,243.917130 
	C238.956345,241.867279 242.046738,239.903732 245.617310,238.012299 
	C246.123901,238.123520 246.450943,238.447403 246.450943,238.447403 
z"/>
<path fill="#3F39A7" opacity="1.000000" stroke="none" 
	d="
M245.962677,237.959305 
	C246.098862,237.642853 246.396271,237.490616 246.693680,237.338379 
	C246.725906,237.578705 246.758118,237.819046 246.620636,238.253387 
	C246.450943,238.447403 246.123901,238.123520 245.962677,237.959305 
z"/>
</svg>